<mxfile host="app.diagrams.net" modified="2023-01-11T07:32:01.621Z" agent="5.0 (Windows NT 10.0; Win64; x64) AppleWebKit/537.36 (KHTML, like Gecko) Chrome/108.0.0.0 Safari/537.36" version="20.8.3" etag="P2bQTizw_lFbU20K-ukK" type="github">
  <diagram id="AEnEGb0QVDxgxt8X6Wf-" name="Page-1">
    <mxGraphModel dx="1050" dy="1681" grid="1" gridSize="10" guides="1" tooltips="1" connect="1" arrows="1" fold="1" page="1" pageScale="1" pageWidth="850" pageHeight="1100" math="0" shadow="0">
      <root>
        <mxCell id="0" />
        <mxCell id="1" parent="0" />
        <mxCell id="ddWomf6Aq5IqWA8aYFaR-2" value="" style="rounded=0;whiteSpace=wrap;html=1;" vertex="1" parent="1">
          <mxGeometry x="40" y="-100" width="270" height="790" as="geometry" />
        </mxCell>
        <mxCell id="ddWomf6Aq5IqWA8aYFaR-3" value="" style="rounded=0;whiteSpace=wrap;html=1;" vertex="1" parent="1">
          <mxGeometry x="310" y="-100" width="270" height="790" as="geometry" />
        </mxCell>
        <mxCell id="ddWomf6Aq5IqWA8aYFaR-4" value="&lt;font style=&quot;font-size: 16px;&quot;&gt;Admin&lt;/font&gt;" style="rounded=0;whiteSpace=wrap;html=1;" vertex="1" parent="1">
          <mxGeometry x="40" y="-140" width="270" height="40" as="geometry" />
        </mxCell>
        <mxCell id="ddWomf6Aq5IqWA8aYFaR-5" value="&lt;font style=&quot;font-size: 16px;&quot;&gt;Sistem&lt;/font&gt;" style="rounded=0;whiteSpace=wrap;html=1;" vertex="1" parent="1">
          <mxGeometry x="310" y="-140" width="270" height="40" as="geometry" />
        </mxCell>
        <mxCell id="ddWomf6Aq5IqWA8aYFaR-21" style="edgeStyle=orthogonalEdgeStyle;rounded=0;orthogonalLoop=1;jettySize=auto;html=1;entryX=0;entryY=0.5;entryDx=0;entryDy=0;fontSize=16;" edge="1" parent="1" source="ddWomf6Aq5IqWA8aYFaR-6" target="ddWomf6Aq5IqWA8aYFaR-10">
          <mxGeometry relative="1" as="geometry" />
        </mxCell>
        <mxCell id="ddWomf6Aq5IqWA8aYFaR-6" value="Pilih Menu Perjalanan Dinas" style="rounded=1;whiteSpace=wrap;html=1;fontSize=16;" vertex="1" parent="1">
          <mxGeometry x="92.5" y="230" width="165" height="60" as="geometry" />
        </mxCell>
        <mxCell id="ddWomf6Aq5IqWA8aYFaR-42" style="edgeStyle=orthogonalEdgeStyle;rounded=0;orthogonalLoop=1;jettySize=auto;html=1;exitX=0.5;exitY=1;exitDx=0;exitDy=0;fontSize=16;" edge="1" parent="1" source="ddWomf6Aq5IqWA8aYFaR-7" target="ddWomf6Aq5IqWA8aYFaR-29">
          <mxGeometry relative="1" as="geometry" />
        </mxCell>
        <mxCell id="ddWomf6Aq5IqWA8aYFaR-7" value="" style="ellipse;html=1;shape=endState;fillColor=#000000;strokeColor=none;fontSize=16;" vertex="1" parent="1">
          <mxGeometry x="160" y="-70" width="30" height="30" as="geometry" />
        </mxCell>
        <mxCell id="ddWomf6Aq5IqWA8aYFaR-24" style="edgeStyle=orthogonalEdgeStyle;rounded=0;orthogonalLoop=1;jettySize=auto;html=1;exitX=0.5;exitY=1;exitDx=0;exitDy=0;fontSize=16;" edge="1" parent="1" source="ddWomf6Aq5IqWA8aYFaR-10" target="ddWomf6Aq5IqWA8aYFaR-11">
          <mxGeometry relative="1" as="geometry" />
        </mxCell>
        <mxCell id="ddWomf6Aq5IqWA8aYFaR-10" value="Menampilkan Data Perjalanan Dinas" style="rounded=1;whiteSpace=wrap;html=1;fontSize=16;" vertex="1" parent="1">
          <mxGeometry x="362.5" y="230" width="165" height="60" as="geometry" />
        </mxCell>
        <mxCell id="ddWomf6Aq5IqWA8aYFaR-23" style="edgeStyle=orthogonalEdgeStyle;rounded=0;orthogonalLoop=1;jettySize=auto;html=1;exitX=1;exitY=0.5;exitDx=0;exitDy=0;entryX=0;entryY=0.5;entryDx=0;entryDy=0;fontSize=16;" edge="1" parent="1" source="ddWomf6Aq5IqWA8aYFaR-11" target="ddWomf6Aq5IqWA8aYFaR-12">
          <mxGeometry relative="1" as="geometry" />
        </mxCell>
        <mxCell id="ddWomf6Aq5IqWA8aYFaR-11" value="Klik Tambah Data Perjalanan Dinas" style="rounded=1;whiteSpace=wrap;html=1;fontSize=16;" vertex="1" parent="1">
          <mxGeometry x="92.5" y="330" width="165" height="60" as="geometry" />
        </mxCell>
        <mxCell id="ddWomf6Aq5IqWA8aYFaR-25" style="edgeStyle=orthogonalEdgeStyle;rounded=0;orthogonalLoop=1;jettySize=auto;html=1;exitX=0.5;exitY=1;exitDx=0;exitDy=0;fontSize=16;" edge="1" parent="1" source="ddWomf6Aq5IqWA8aYFaR-12" target="ddWomf6Aq5IqWA8aYFaR-13">
          <mxGeometry relative="1" as="geometry" />
        </mxCell>
        <mxCell id="ddWomf6Aq5IqWA8aYFaR-12" value="Menampilan Form Tambah Data Perjalanan DInas" style="rounded=1;whiteSpace=wrap;html=1;fontSize=16;" vertex="1" parent="1">
          <mxGeometry x="362.5" y="330" width="165" height="60" as="geometry" />
        </mxCell>
        <mxCell id="ddWomf6Aq5IqWA8aYFaR-26" style="edgeStyle=orthogonalEdgeStyle;rounded=0;orthogonalLoop=1;jettySize=auto;html=1;exitX=0.5;exitY=1;exitDx=0;exitDy=0;entryX=0.5;entryY=0;entryDx=0;entryDy=0;fontSize=16;" edge="1" parent="1" source="ddWomf6Aq5IqWA8aYFaR-13" target="ddWomf6Aq5IqWA8aYFaR-14">
          <mxGeometry relative="1" as="geometry" />
        </mxCell>
        <mxCell id="ddWomf6Aq5IqWA8aYFaR-13" value="Input Data Perjalanan Dinas" style="rounded=1;whiteSpace=wrap;html=1;fontSize=16;" vertex="1" parent="1">
          <mxGeometry x="92.5" y="430" width="165" height="60" as="geometry" />
        </mxCell>
        <mxCell id="ddWomf6Aq5IqWA8aYFaR-27" style="edgeStyle=orthogonalEdgeStyle;rounded=0;orthogonalLoop=1;jettySize=auto;html=1;exitX=1;exitY=0.5;exitDx=0;exitDy=0;entryX=0;entryY=0.5;entryDx=0;entryDy=0;fontSize=16;" edge="1" parent="1" source="ddWomf6Aq5IqWA8aYFaR-14" target="ddWomf6Aq5IqWA8aYFaR-15">
          <mxGeometry relative="1" as="geometry" />
        </mxCell>
        <mxCell id="ddWomf6Aq5IqWA8aYFaR-14" value="Klik Simpan Data" style="rounded=1;whiteSpace=wrap;html=1;fontSize=16;" vertex="1" parent="1">
          <mxGeometry x="92.5" y="530" width="165" height="60" as="geometry" />
        </mxCell>
        <mxCell id="ddWomf6Aq5IqWA8aYFaR-28" style="edgeStyle=orthogonalEdgeStyle;rounded=0;orthogonalLoop=1;jettySize=auto;html=1;exitX=0.5;exitY=1;exitDx=0;exitDy=0;entryX=0.5;entryY=0;entryDx=0;entryDy=0;fontSize=16;" edge="1" parent="1" source="ddWomf6Aq5IqWA8aYFaR-15" target="ddWomf6Aq5IqWA8aYFaR-16">
          <mxGeometry relative="1" as="geometry" />
        </mxCell>
        <mxCell id="ddWomf6Aq5IqWA8aYFaR-15" value="Menampilkan Pesan Data Berhasil Disimpan" style="rounded=1;whiteSpace=wrap;html=1;fontSize=16;" vertex="1" parent="1">
          <mxGeometry x="362.5" y="530" width="165" height="60" as="geometry" />
        </mxCell>
        <mxCell id="ddWomf6Aq5IqWA8aYFaR-16" value="" style="ellipse;html=1;shape=endState;fillColor=#000000;strokeColor=#ff0000;fontSize=16;" vertex="1" parent="1">
          <mxGeometry x="430" y="630" width="30" height="30" as="geometry" />
        </mxCell>
        <mxCell id="ddWomf6Aq5IqWA8aYFaR-43" style="edgeStyle=orthogonalEdgeStyle;rounded=0;orthogonalLoop=1;jettySize=auto;html=1;entryX=0;entryY=0.5;entryDx=0;entryDy=0;fontSize=16;" edge="1" parent="1" source="ddWomf6Aq5IqWA8aYFaR-29" target="ddWomf6Aq5IqWA8aYFaR-30">
          <mxGeometry relative="1" as="geometry" />
        </mxCell>
        <mxCell id="ddWomf6Aq5IqWA8aYFaR-29" value="Login" style="rounded=1;whiteSpace=wrap;html=1;fontSize=16;" vertex="1" parent="1">
          <mxGeometry x="92.5" y="10" width="165" height="60" as="geometry" />
        </mxCell>
        <mxCell id="ddWomf6Aq5IqWA8aYFaR-37" style="edgeStyle=orthogonalEdgeStyle;rounded=0;orthogonalLoop=1;jettySize=auto;html=1;exitX=0.5;exitY=1;exitDx=0;exitDy=0;entryX=0.5;entryY=0;entryDx=0;entryDy=0;entryPerimeter=0;fontSize=16;" edge="1" parent="1" source="ddWomf6Aq5IqWA8aYFaR-30" target="ddWomf6Aq5IqWA8aYFaR-31">
          <mxGeometry relative="1" as="geometry" />
        </mxCell>
        <mxCell id="ddWomf6Aq5IqWA8aYFaR-30" value="Verifikasi" style="rounded=1;whiteSpace=wrap;html=1;fontSize=16;" vertex="1" parent="1">
          <mxGeometry x="362.5" y="10" width="165" height="60" as="geometry" />
        </mxCell>
        <mxCell id="ddWomf6Aq5IqWA8aYFaR-39" value="T" style="edgeStyle=orthogonalEdgeStyle;rounded=0;orthogonalLoop=1;jettySize=auto;html=1;exitX=1;exitY=0.5;exitDx=0;exitDy=0;exitPerimeter=0;entryX=0.5;entryY=0;entryDx=0;entryDy=0;fontSize=16;" edge="1" parent="1" source="ddWomf6Aq5IqWA8aYFaR-31" target="ddWomf6Aq5IqWA8aYFaR-29">
          <mxGeometry relative="1" as="geometry">
            <Array as="points">
              <mxPoint x="550" y="140" />
              <mxPoint x="550" y="-10" />
              <mxPoint x="175" y="-10" />
            </Array>
          </mxGeometry>
        </mxCell>
        <mxCell id="ddWomf6Aq5IqWA8aYFaR-47" value="Y" style="edgeStyle=orthogonalEdgeStyle;rounded=0;orthogonalLoop=1;jettySize=auto;html=1;exitX=0.5;exitY=1;exitDx=0;exitDy=0;exitPerimeter=0;entryX=1;entryY=0.5;entryDx=0;entryDy=0;fontSize=16;" edge="1" parent="1" source="ddWomf6Aq5IqWA8aYFaR-31" target="ddWomf6Aq5IqWA8aYFaR-45">
          <mxGeometry relative="1" as="geometry" />
        </mxCell>
        <mxCell id="ddWomf6Aq5IqWA8aYFaR-31" value="Valid?" style="strokeWidth=2;html=1;shape=mxgraph.flowchart.decision;whiteSpace=wrap;fontSize=16;" vertex="1" parent="1">
          <mxGeometry x="402.5" y="100" width="85" height="80" as="geometry" />
        </mxCell>
        <mxCell id="ddWomf6Aq5IqWA8aYFaR-48" style="edgeStyle=orthogonalEdgeStyle;rounded=0;orthogonalLoop=1;jettySize=auto;html=1;exitX=0.5;exitY=1;exitDx=0;exitDy=0;fontSize=16;" edge="1" parent="1" source="ddWomf6Aq5IqWA8aYFaR-45" target="ddWomf6Aq5IqWA8aYFaR-6">
          <mxGeometry relative="1" as="geometry" />
        </mxCell>
        <mxCell id="ddWomf6Aq5IqWA8aYFaR-45" value="Menampilkan Menu Utama" style="rounded=1;whiteSpace=wrap;html=1;fontSize=16;" vertex="1" parent="1">
          <mxGeometry x="92.5" y="110" width="165" height="60" as="geometry" />
        </mxCell>
      </root>
    </mxGraphModel>
  </diagram>
</mxfile>
